<svg width="332" height="105" viewBox="0 0 332 105" fill="none" xmlns="http://www.w3.org/2000/svg">
<path d="M136.904 55.288C136.115 55.288 135.549 55.1707 135.208 54.936C134.888 54.7013 134.685 54.392 134.6 54.008C134.515 53.624 134.472 53.2293 134.472 52.824V35.352C134.472 34.9467 134.515 34.5627 134.6 34.2C134.685 33.816 134.899 33.5067 135.24 33.272C135.581 33.0373 136.147 32.92 136.936 32.92H143.496C144.392 32.92 145.288 33.08 146.184 33.4C147.101 33.72 147.944 34.2213 148.712 34.904C149.501 35.5653 150.131 36.3867 150.6 37.368C151.091 38.3493 151.336 39.5013 151.336 40.824C151.336 42.1253 151.091 43.2667 150.6 44.248C150.131 45.2293 149.501 46.0507 148.712 46.712C147.944 47.352 147.101 47.8427 146.184 48.184C145.267 48.504 144.36 48.664 143.464 48.664H139.368V52.856C139.368 53.2613 139.325 53.656 139.24 54.04C139.155 54.4027 138.941 54.7013 138.6 54.936C138.259 55.1707 137.693 55.288 136.904 55.288ZM139.368 43.8H143.496C143.965 43.8 144.424 43.704 144.872 43.512C145.341 43.2987 145.725 42.968 146.024 42.52C146.344 42.072 146.504 41.496 146.504 40.792C146.504 40.1947 146.376 39.672 146.12 39.224C145.864 38.776 145.501 38.424 145.032 38.168C144.584 37.912 144.061 37.784 143.464 37.784H139.368V43.8ZM156.062 55.288C155.294 55.288 154.739 55.1707 154.398 54.936C154.056 54.7013 153.843 54.392 153.758 54.008C153.694 53.624 153.662 53.2293 153.662 52.824V35.32C153.662 34.9147 153.694 34.5307 153.758 34.168C153.843 33.8053 154.056 33.5067 154.398 33.272C154.739 33.0373 155.304 32.92 156.094 32.92H162.75C163.624 32.92 164.52 33.08 165.438 33.4C166.355 33.72 167.198 34.2107 167.966 34.872C168.734 35.5333 169.352 36.3547 169.822 37.336C170.291 38.3173 170.526 39.48 170.526 40.824C170.526 41.72 170.387 42.584 170.11 43.416C169.854 44.248 169.459 45.016 168.926 45.72C168.392 46.424 167.731 47.032 166.942 47.544C166.152 48.0347 165.246 48.3867 164.222 48.6H158.526V52.856C158.526 53.2613 158.483 53.656 158.398 54.04C158.312 54.4027 158.099 54.7013 157.758 54.936C157.416 55.1707 156.851 55.288 156.062 55.288ZM169.566 54.648C168.776 55.224 168.147 55.448 167.678 55.32C167.208 55.192 166.718 54.776 166.206 54.072L160.574 46.008L166.046 45.304L170.174 51.224C170.536 51.736 170.76 52.1733 170.846 52.536C170.952 52.8987 170.899 53.24 170.686 53.56C170.494 53.88 170.12 54.2427 169.566 54.648ZM158.526 43.8H162.974C163.272 43.8 163.582 43.7467 163.902 43.64C164.222 43.512 164.51 43.3307 164.766 43.096C165.022 42.8613 165.235 42.552 165.406 42.168C165.576 41.784 165.662 41.3253 165.662 40.792C165.662 40.1733 165.534 39.64 165.278 39.192C165.043 38.744 164.702 38.4027 164.254 38.168C163.806 37.912 163.283 37.784 162.686 37.784H158.526V43.8ZM183.088 55.608C181.552 55.608 180.101 55.32 178.736 54.744C177.392 54.1467 176.208 53.336 175.184 52.312C174.181 51.2667 173.381 50.0613 172.784 48.696C172.208 47.3307 171.92 45.8587 171.92 44.28C171.92 42.68 172.197 41.1867 172.752 39.8C173.328 38.392 174.106 37.1547 175.088 36.088C176.09 35.0213 177.253 34.1893 178.576 33.592C179.898 32.9947 181.317 32.696 182.832 32.696C184.368 32.696 185.808 32.9947 187.152 33.592C188.517 34.168 189.701 34.9787 190.704 36.024C191.706 37.0693 192.496 38.2853 193.072 39.672C193.669 41.0587 193.968 42.5627 193.968 44.184C193.968 45.7413 193.68 47.2133 193.104 48.6C192.549 49.9653 191.77 51.1813 190.768 52.248C189.765 53.2933 188.602 54.1147 187.28 54.712C185.978 55.3093 184.581 55.608 183.088 55.608ZM182.928 50.744C183.781 50.744 184.581 50.5733 185.328 50.232C186.074 49.8907 186.725 49.432 187.28 48.856C187.856 48.2587 188.293 47.5653 188.592 46.776C188.912 45.9653 189.072 45.0907 189.072 44.152C189.072 43.256 188.912 42.4133 188.592 41.624C188.272 40.8133 187.824 40.1093 187.248 39.512C186.693 38.8933 186.042 38.4133 185.296 38.072C184.57 37.7307 183.781 37.56 182.928 37.56C182.096 37.56 181.306 37.7307 180.56 38.072C179.834 38.4133 179.184 38.8933 178.608 39.512C178.053 40.1093 177.605 40.8133 177.264 41.624C176.944 42.4133 176.784 43.2667 176.784 44.184C176.784 45.08 176.944 45.9333 177.264 46.744C177.605 47.5333 178.053 48.2267 178.608 48.824C179.184 49.4213 179.834 49.8907 180.56 50.232C181.285 50.5733 182.074 50.744 182.928 50.744ZM198.563 55.288C197.795 55.288 197.241 55.1813 196.899 54.968C196.558 54.7333 196.345 54.424 196.259 54.04C196.195 53.656 196.163 53.2613 196.163 52.856V35.352C196.163 34.4133 196.345 33.7733 196.707 33.432C197.07 33.0907 197.721 32.92 198.659 32.92H210.755C211.182 32.92 211.577 32.9627 211.939 33.048C212.302 33.112 212.59 33.3147 212.803 33.656C213.038 33.9973 213.155 34.5733 213.155 35.384C213.155 36.152 213.038 36.7067 212.803 37.048C212.569 37.3893 212.259 37.6027 211.875 37.688C211.513 37.752 211.118 37.784 210.691 37.784H201.027V41.912H207.587C208.014 41.912 208.387 41.944 208.707 42.008C209.049 42.072 209.315 42.2533 209.507 42.552C209.699 42.8507 209.795 43.352 209.795 44.056C209.795 44.7387 209.699 45.2293 209.507 45.528C209.315 45.8053 209.049 45.976 208.707 46.04C208.387 46.104 208.003 46.136 207.555 46.136H201.027V52.888C201.027 53.2933 200.985 53.688 200.899 54.072C200.814 54.4347 200.601 54.7333 200.259 54.968C199.939 55.1813 199.374 55.288 198.563 55.288ZM213.019 55.32C212.038 55.32 211.355 55.128 210.971 54.744C210.587 54.36 210.395 53.6987 210.395 52.76C210.395 52.0987 210.481 51.576 210.651 51.192C210.822 50.808 211.099 50.5307 211.483 50.36C211.867 50.1893 212.379 50.104 213.019 50.104C214.001 50.104 214.673 50.296 215.035 50.68C215.419 51.064 215.611 51.7467 215.611 52.728C215.611 53.368 215.526 53.88 215.355 54.264C215.206 54.648 214.939 54.9147 214.555 55.064C214.171 55.2347 213.659 55.32 213.019 55.32ZM228.156 55.288C227.388 55.288 226.833 55.1707 226.492 54.936C226.15 54.7013 225.937 54.392 225.852 54.008C225.788 53.624 225.756 53.2293 225.756 52.824V35.32C225.756 34.9147 225.788 34.5307 225.852 34.168C225.937 33.8053 226.15 33.5067 226.492 33.272C226.833 33.0373 227.398 32.92 228.188 32.92H234.844C235.718 32.92 236.614 33.08 237.532 33.4C238.449 33.72 239.292 34.2107 240.06 34.872C240.828 35.5333 241.446 36.3547 241.916 37.336C242.385 38.3173 242.62 39.48 242.62 40.824C242.62 41.72 242.481 42.584 242.204 43.416C241.948 44.248 241.553 45.016 241.02 45.72C240.486 46.424 239.825 47.032 239.036 47.544C238.246 48.0347 237.34 48.3867 236.316 48.6H230.62V52.856C230.62 53.2613 230.577 53.656 230.492 54.04C230.406 54.4027 230.193 54.7013 229.852 54.936C229.51 55.1707 228.945 55.288 228.156 55.288ZM241.66 54.648C240.87 55.224 240.241 55.448 239.772 55.32C239.302 55.192 238.812 54.776 238.3 54.072L232.668 46.008L238.14 45.304L242.267 51.224C242.63 51.736 242.854 52.1733 242.94 52.536C243.046 52.8987 242.993 53.24 242.78 53.56C242.588 53.88 242.214 54.2427 241.66 54.648ZM230.62 43.8H235.068C235.366 43.8 235.676 43.7467 235.996 43.64C236.316 43.512 236.604 43.3307 236.86 43.096C237.116 42.8613 237.329 42.552 237.5 42.168C237.67 41.784 237.756 41.3253 237.756 40.792C237.756 40.1733 237.628 39.64 237.372 39.192C237.137 38.744 236.796 38.4027 236.348 38.168C235.9 37.912 235.377 37.784 234.78 37.784H230.62V43.8ZM254.694 55.576C253.137 55.576 251.761 55.2773 250.566 54.68C249.393 54.0613 248.39 53.2507 247.558 52.248C246.747 51.224 246.139 50.0827 245.734 48.824C245.329 47.544 245.126 46.2427 245.126 44.92V35.352C245.126 34.9253 245.158 34.5307 245.222 34.168C245.307 33.784 245.521 33.4747 245.862 33.24C246.203 33.0053 246.769 32.888 247.558 32.888C248.369 32.888 248.945 33.0053 249.286 33.24C249.627 33.4747 249.83 33.784 249.894 34.168C249.979 34.5307 250.022 34.936 250.022 35.384V44.92C250.022 45.8587 250.171 46.7653 250.47 47.64C250.79 48.5147 251.302 49.24 252.006 49.816C252.71 50.392 253.638 50.68 254.79 50.68C255.771 50.68 256.614 50.4453 257.318 49.976C258.022 49.4853 258.566 48.8133 258.95 47.96C259.334 47.0853 259.526 46.0613 259.526 44.888V35.16C259.526 34.776 259.569 34.4133 259.654 34.072C259.739 33.7307 259.953 33.4533 260.294 33.24C260.635 33.0053 261.201 32.888 261.99 32.888C262.779 32.888 263.334 33.016 263.654 33.272C263.995 33.5067 264.198 33.8053 264.262 34.168C264.347 34.5307 264.39 34.936 264.39 35.384V44.984C264.39 46.328 264.177 47.6293 263.75 48.888C263.345 50.1467 262.726 51.2773 261.894 52.28C261.083 53.2827 260.07 54.0827 258.854 54.68C257.659 55.2773 256.273 55.576 254.694 55.576ZM286.204 51.896C286.46 52.4293 286.598 52.888 286.62 53.272C286.641 53.6347 286.524 53.9653 286.268 54.264C286.033 54.5413 285.638 54.8187 285.084 55.096C284.23 55.5013 283.569 55.6187 283.1 55.448C282.63 55.2987 282.193 54.7973 281.788 53.944L275.516 40.824L269.276 53.944C268.849 54.776 268.401 55.2667 267.932 55.416C267.484 55.5867 266.833 55.4693 265.98 55.064C265.425 54.808 265.02 54.5413 264.764 54.264C264.529 53.9653 264.422 53.624 264.444 53.24C264.465 52.8347 264.614 52.3653 264.892 51.832L273.308 34.328C273.521 33.9013 273.83 33.56 274.236 33.304C274.662 33.048 275.1 32.92 275.548 32.92C275.868 32.92 276.166 32.984 276.444 33.112C276.721 33.2187 276.966 33.3787 277.18 33.592C277.414 33.8053 277.606 34.0613 277.756 34.36L286.204 51.896ZM270.14 50.072L272.124 45.944H278.94L280.924 50.072H270.14ZM290.555 55.288C289.808 55.288 289.264 55.1707 288.923 54.936C288.582 54.7013 288.368 54.4027 288.283 54.04C288.198 53.656 288.155 53.2507 288.155 52.824V35.256C288.155 34.8507 288.198 34.4773 288.283 34.136C288.368 33.7947 288.582 33.5173 288.923 33.304C289.286 33.0693 289.862 32.952 290.651 32.952C291.419 32.952 291.952 33.048 292.251 33.24C292.55 33.4107 292.816 33.656 293.051 33.976L302.395 46.808V35.256C302.395 34.8507 302.438 34.4773 302.523 34.136C302.63 33.7947 302.854 33.5173 303.195 33.304C303.536 33.0693 304.091 32.952 304.859 32.952C305.648 32.952 306.203 33.0693 306.523 33.304C306.864 33.5387 307.067 33.848 307.131 34.232C307.216 34.5947 307.259 34.9787 307.259 35.384V52.856C307.259 53.2613 307.216 53.656 307.131 54.04C307.046 54.4027 306.832 54.7013 306.491 54.936C306.15 55.1707 305.584 55.288 304.795 55.288C304.198 55.288 303.728 55.2347 303.387 55.128C303.067 55.0213 302.79 54.8187 302.555 54.52L293.019 41.592V52.856C293.019 53.2613 292.976 53.656 292.891 54.04C292.806 54.4027 292.592 54.7013 292.251 54.936C291.91 55.1707 291.344 55.288 290.555 55.288ZM320.463 55.608C318.927 55.608 317.476 55.32 316.111 54.744C314.767 54.1467 313.583 53.336 312.559 52.312C311.556 51.2667 310.756 50.0613 310.159 48.696C309.583 47.3307 309.295 45.8587 309.295 44.28C309.295 42.68 309.572 41.1867 310.127 39.8C310.703 38.392 311.481 37.1547 312.463 36.088C313.465 35.0213 314.628 34.1893 315.951 33.592C317.273 32.9947 318.692 32.696 320.207 32.696C321.743 32.696 323.183 32.9947 324.527 33.592C325.892 34.168 327.076 34.9787 328.079 36.024C329.081 37.0693 329.871 38.2853 330.447 39.672C331.044 41.0587 331.343 42.5627 331.343 44.184C331.343 45.7413 331.055 47.2133 330.479 48.6C329.924 49.9653 329.145 51.1813 328.143 52.248C327.14 53.2933 325.977 54.1147 324.655 54.712C323.353 55.3093 321.956 55.608 320.463 55.608ZM320.303 50.744C321.156 50.744 321.956 50.5733 322.703 50.232C323.449 49.8907 324.1 49.432 324.655 48.856C325.231 48.2587 325.668 47.5653 325.967 46.776C326.287 45.9653 326.447 45.0907 326.447 44.152C326.447 43.256 326.287 42.4133 325.967 41.624C325.647 40.8133 325.199 40.1093 324.623 39.512C324.068 38.8933 323.417 38.4133 322.671 38.072C321.945 37.7307 321.156 37.56 320.303 37.56C319.471 37.56 318.681 37.7307 317.935 38.072C317.209 38.4133 316.559 38.8933 315.983 39.512C315.428 40.1093 314.98 40.8133 314.639 41.624C314.319 42.4133 314.159 43.2667 314.159 44.184C314.159 45.08 314.319 45.9333 314.639 46.744C314.98 47.5333 315.428 48.2267 315.983 48.824C316.559 49.4213 317.209 49.8907 317.935 50.232C318.66 50.5733 319.449 50.744 320.303 50.744Z" fill="#26A973"/>
<path d="M135.448 86.24C135.288 86.24 135.16 86.216 135.064 86.168C134.968 86.12 134.896 86.048 134.848 85.952C134.816 85.84 134.8 85.696 134.8 85.52V75.44C134.8 75.28 134.816 75.16 134.848 75.08C134.896 74.984 134.968 74.92 135.064 74.888C135.176 74.84 135.312 74.816 135.472 74.816C135.696 74.816 135.856 74.864 135.952 74.96C136.048 75.056 136.096 75.216 136.096 75.44V76.88C136.24 76.544 136.44 76.248 136.696 75.992C136.968 75.736 137.272 75.52 137.608 75.344C137.944 75.152 138.288 75.008 138.64 74.912C139.008 74.816 139.36 74.768 139.696 74.768C140.272 74.768 140.784 74.88 141.232 75.104C141.696 75.328 142.104 75.648 142.456 76.064C142.808 76.464 143.104 76.96 143.344 77.552C143.712 76.912 144.08 76.392 144.448 75.992C144.832 75.576 145.256 75.272 145.72 75.08C146.2 74.872 146.736 74.768 147.328 74.768C148.24 74.768 148.992 74.992 149.584 75.44C150.192 75.888 150.648 76.512 150.952 77.312C151.256 78.112 151.408 79.056 151.408 80.144V85.544C151.408 85.72 151.384 85.864 151.336 85.976C151.304 86.072 151.24 86.136 151.144 86.168C151.048 86.216 150.912 86.24 150.736 86.24C150.56 86.24 150.416 86.216 150.304 86.168C150.208 86.12 150.136 86.048 150.088 85.952C150.056 85.84 150.04 85.696 150.04 85.52V80.12C150.04 79.304 149.936 78.592 149.728 77.984C149.536 77.36 149.24 76.88 148.84 76.544C148.44 76.192 147.92 76.016 147.28 76.016C146.608 76.016 146.008 76.192 145.48 76.544C144.952 76.88 144.536 77.36 144.232 77.984C143.928 78.592 143.776 79.304 143.776 80.12V85.568C143.776 85.776 143.72 85.936 143.608 86.048C143.512 86.176 143.384 86.248 143.224 86.264C143.08 86.296 142.944 86.28 142.816 86.216C142.72 86.184 142.64 86.136 142.576 86.072C142.512 86.024 142.464 85.952 142.432 85.856C142.416 85.76 142.408 85.648 142.408 85.52V80.12C142.408 79.304 142.304 78.592 142.096 77.984C141.904 77.36 141.608 76.88 141.208 76.544C140.808 76.192 140.288 76.016 139.648 76.016C138.976 76.016 138.376 76.192 137.848 76.544C137.32 76.88 136.904 77.36 136.6 77.984C136.296 78.592 136.144 79.304 136.144 80.12V85.544C136.144 85.72 136.12 85.864 136.072 85.976C136.04 86.072 135.968 86.136 135.856 86.168C135.76 86.216 135.624 86.24 135.448 86.24ZM164.798 86.24C164.574 86.24 164.414 86.184 164.318 86.072C164.222 85.96 164.158 85.752 164.126 85.448V83.84C163.95 84.144 163.67 84.488 163.286 84.872C162.918 85.24 162.43 85.568 161.822 85.856C161.23 86.128 160.51 86.264 159.662 86.264C158.878 86.264 158.15 86.12 157.478 85.832C156.822 85.528 156.246 85.112 155.75 84.584C155.254 84.056 154.862 83.448 154.574 82.76C154.302 82.056 154.166 81.296 154.166 80.48C154.166 79.696 154.302 78.968 154.574 78.296C154.862 77.608 155.254 77.008 155.75 76.496C156.262 75.968 156.846 75.56 157.502 75.272C158.174 74.968 158.894 74.816 159.662 74.816C160.414 74.816 161.054 74.912 161.582 75.104C162.126 75.296 162.598 75.56 162.998 75.896C163.414 76.232 163.79 76.624 164.126 77.072V75.704C164.126 75.384 164.174 75.16 164.27 75.032C164.382 74.888 164.566 74.816 164.822 74.816C164.982 74.816 165.102 74.848 165.182 74.912C165.278 74.96 165.342 75.048 165.374 75.176C165.422 75.304 165.446 75.48 165.446 75.704V85.448C165.446 85.64 165.422 85.8 165.374 85.928C165.342 86.04 165.278 86.12 165.182 86.168C165.086 86.216 164.958 86.24 164.798 86.24ZM159.926 85.016C160.694 85.016 161.39 84.824 162.014 84.44C162.638 84.04 163.134 83.504 163.502 82.832C163.87 82.16 164.054 81.392 164.054 80.528C164.054 79.616 163.862 78.824 163.478 78.152C163.094 77.48 162.582 76.96 161.942 76.592C161.318 76.208 160.63 76.016 159.878 76.016C158.998 76.016 158.23 76.216 157.574 76.616C156.918 77.016 156.406 77.56 156.038 78.248C155.67 78.92 155.486 79.696 155.486 80.576C155.486 81.424 155.67 82.184 156.038 82.856C156.406 83.528 156.926 84.056 157.598 84.44C158.27 84.824 159.046 85.016 159.926 85.016ZM173.896 86.264C173.176 86.264 172.568 86.2 172.072 86.072C171.592 85.944 171.2 85.744 170.896 85.472C170.592 85.2 170.376 84.84 170.248 84.392C170.12 83.928 170.056 83.36 170.056 82.688V71.648C170.056 71.456 170.072 71.312 170.104 71.216C170.152 71.104 170.224 71.024 170.32 70.976C170.416 70.928 170.544 70.904 170.704 70.904C170.88 70.904 171.016 70.928 171.112 70.976C171.224 71.008 171.304 71.072 171.352 71.168C171.4 71.264 171.424 71.4 171.424 71.576V82.736C171.424 83.232 171.464 83.632 171.544 83.936C171.64 84.224 171.776 84.44 171.952 84.584C172.144 84.728 172.4 84.824 172.72 84.872C173.04 84.904 173.424 84.92 173.872 84.92C174.064 84.92 174.208 84.944 174.304 84.992C174.416 85.024 174.496 85.088 174.544 85.184C174.592 85.28 174.616 85.416 174.616 85.592C174.616 85.768 174.592 85.904 174.544 86C174.496 86.096 174.416 86.16 174.304 86.192C174.208 86.24 174.072 86.264 173.896 86.264ZM168.568 75.128L170.704 75.176L174.04 75.128C174.216 75.128 174.352 75.152 174.448 75.2C174.56 75.232 174.64 75.296 174.688 75.392C174.736 75.488 174.76 75.616 174.76 75.776C174.76 75.952 174.736 76.096 174.688 76.208C174.656 76.304 174.592 76.376 174.496 76.424C174.4 76.456 174.264 76.472 174.088 76.472L170.704 76.424L168.52 76.472C168.264 76.472 168.088 76.424 167.992 76.328C167.896 76.216 167.848 76.032 167.848 75.776C167.848 75.536 167.904 75.368 168.016 75.272C168.128 75.176 168.312 75.128 168.568 75.128ZM182.617 86.312C181.737 86.312 180.929 86.168 180.193 85.88C179.473 85.592 178.849 85.184 178.321 84.656C177.809 84.128 177.409 83.504 177.121 82.784C176.833 82.064 176.689 81.264 176.689 80.384C176.689 79.344 176.937 78.408 177.433 77.576C177.929 76.744 178.617 76.088 179.497 75.608C180.377 75.112 181.385 74.864 182.521 74.864C183.257 74.864 183.929 74.976 184.537 75.2C185.145 75.424 185.673 75.728 186.121 76.112C186.569 76.496 186.913 76.936 187.153 77.432C187.409 77.928 187.537 78.44 187.537 78.968C187.537 79.752 187.353 80.288 186.985 80.576C186.633 80.848 186.201 80.984 185.689 80.984H178.129C178.097 81.832 178.305 82.56 178.753 83.168C179.217 83.776 179.793 84.248 180.481 84.584C181.185 84.904 181.889 85.064 182.593 85.064C183.057 85.064 183.457 85.04 183.793 84.992C184.145 84.944 184.441 84.88 184.681 84.8C184.937 84.704 185.153 84.616 185.329 84.536C185.505 84.44 185.665 84.352 185.809 84.272C185.953 84.176 186.089 84.104 186.217 84.056C186.297 84.024 186.385 84.016 186.481 84.032C186.593 84.032 186.673 84.072 186.721 84.152C186.801 84.264 186.857 84.368 186.889 84.464C186.921 84.544 186.937 84.64 186.937 84.752C186.937 84.896 186.745 85.096 186.361 85.352C185.977 85.592 185.457 85.808 184.801 86C184.145 86.208 183.417 86.312 182.617 86.312ZM178.129 79.832H185.281C185.601 79.832 185.849 79.8 186.025 79.736C186.201 79.656 186.289 79.416 186.289 79.016C186.289 78.488 186.121 78.008 185.785 77.576C185.465 77.128 185.025 76.768 184.465 76.496C183.905 76.224 183.265 76.088 182.545 76.088C181.745 76.088 181.001 76.248 180.313 76.568C179.641 76.888 179.105 77.336 178.705 77.912C178.305 78.472 178.113 79.112 178.129 79.832ZM191.065 86.24C190.905 86.24 190.777 86.216 190.681 86.168C190.585 86.12 190.513 86.048 190.465 85.952C190.433 85.84 190.417 85.696 190.417 85.52V75.44C190.417 75.28 190.433 75.16 190.465 75.08C190.513 74.984 190.585 74.92 190.681 74.888C190.793 74.84 190.929 74.816 191.089 74.816C191.313 74.816 191.473 74.864 191.569 74.96C191.665 75.056 191.713 75.216 191.713 75.44V76.88C191.857 76.544 192.057 76.248 192.313 75.992C192.585 75.736 192.889 75.52 193.225 75.344C193.561 75.152 193.905 75.008 194.257 74.912C194.625 74.816 194.977 74.768 195.313 74.768C195.889 74.768 196.401 74.88 196.849 75.104C197.313 75.328 197.721 75.648 198.073 76.064C198.425 76.464 198.721 76.96 198.961 77.552C199.329 76.912 199.697 76.392 200.065 75.992C200.449 75.576 200.873 75.272 201.337 75.08C201.817 74.872 202.353 74.768 202.945 74.768C203.857 74.768 204.609 74.992 205.201 75.44C205.809 75.888 206.265 76.512 206.569 77.312C206.873 78.112 207.025 79.056 207.025 80.144V85.544C207.025 85.72 207.001 85.864 206.953 85.976C206.921 86.072 206.857 86.136 206.761 86.168C206.665 86.216 206.529 86.24 206.353 86.24C206.177 86.24 206.033 86.216 205.921 86.168C205.825 86.12 205.753 86.048 205.705 85.952C205.673 85.84 205.657 85.696 205.657 85.52V80.12C205.657 79.304 205.553 78.592 205.345 77.984C205.153 77.36 204.857 76.88 204.457 76.544C204.057 76.192 203.537 76.016 202.897 76.016C202.225 76.016 201.625 76.192 201.097 76.544C200.569 76.88 200.153 77.36 199.849 77.984C199.545 78.592 199.393 79.304 199.393 80.12V85.568C199.393 85.776 199.337 85.936 199.225 86.048C199.129 86.176 199.001 86.248 198.841 86.264C198.697 86.296 198.561 86.28 198.433 86.216C198.337 86.184 198.257 86.136 198.193 86.072C198.129 86.024 198.081 85.952 198.049 85.856C198.033 85.76 198.025 85.648 198.025 85.52V80.12C198.025 79.304 197.921 78.592 197.713 77.984C197.521 77.36 197.225 76.88 196.825 76.544C196.425 76.192 195.905 76.016 195.265 76.016C194.593 76.016 193.993 76.192 193.465 76.544C192.937 76.88 192.521 77.36 192.217 77.984C191.913 78.592 191.761 79.304 191.761 80.12V85.544C191.761 85.72 191.737 85.864 191.689 85.976C191.657 86.072 191.585 86.136 191.473 86.168C191.377 86.216 191.241 86.24 191.065 86.24ZM220.415 86.24C220.191 86.24 220.031 86.184 219.935 86.072C219.839 85.96 219.775 85.752 219.743 85.448V83.84C219.567 84.144 219.287 84.488 218.903 84.872C218.535 85.24 218.047 85.568 217.439 85.856C216.847 86.128 216.127 86.264 215.279 86.264C214.495 86.264 213.767 86.12 213.095 85.832C212.439 85.528 211.863 85.112 211.367 84.584C210.871 84.056 210.479 83.448 210.191 82.76C209.919 82.056 209.783 81.296 209.783 80.48C209.783 79.696 209.919 78.968 210.191 78.296C210.479 77.608 210.871 77.008 211.367 76.496C211.879 75.968 212.463 75.56 213.119 75.272C213.791 74.968 214.511 74.816 215.279 74.816C216.031 74.816 216.671 74.912 217.199 75.104C217.743 75.296 218.215 75.56 218.615 75.896C219.031 76.232 219.407 76.624 219.743 77.072V75.704C219.743 75.384 219.791 75.16 219.887 75.032C219.999 74.888 220.183 74.816 220.439 74.816C220.599 74.816 220.719 74.848 220.799 74.912C220.895 74.96 220.959 75.048 220.991 75.176C221.039 75.304 221.063 75.48 221.063 75.704V85.448C221.063 85.64 221.039 85.8 220.991 85.928C220.959 86.04 220.895 86.12 220.799 86.168C220.703 86.216 220.575 86.24 220.415 86.24ZM215.543 85.016C216.311 85.016 217.007 84.824 217.631 84.44C218.255 84.04 218.751 83.504 219.119 82.832C219.487 82.16 219.671 81.392 219.671 80.528C219.671 79.616 219.479 78.824 219.095 78.152C218.711 77.48 218.199 76.96 217.559 76.592C216.935 76.208 216.247 76.016 215.495 76.016C214.615 76.016 213.847 76.216 213.191 76.616C212.535 77.016 212.023 77.56 211.655 78.248C211.287 78.92 211.103 79.696 211.103 80.576C211.103 81.424 211.287 82.184 211.655 82.856C212.023 83.528 212.543 84.056 213.215 84.44C213.887 84.824 214.663 85.016 215.543 85.016ZM215.087 72.872C214.847 72.952 214.663 72.968 214.535 72.92C214.423 72.872 214.327 72.728 214.247 72.488C214.167 72.264 214.151 72.088 214.199 71.96C214.263 71.832 214.399 71.728 214.607 71.648L218.255 70.376C218.479 70.296 218.655 70.288 218.783 70.352C218.911 70.416 219.007 70.568 219.071 70.808C219.151 71.032 219.159 71.208 219.095 71.336C219.031 71.448 218.887 71.544 218.663 71.624L215.087 72.872ZM229.513 86.264C228.793 86.264 228.185 86.2 227.689 86.072C227.209 85.944 226.817 85.744 226.513 85.472C226.209 85.2 225.993 84.84 225.865 84.392C225.737 83.928 225.673 83.36 225.673 82.688V71.648C225.673 71.456 225.689 71.312 225.721 71.216C225.769 71.104 225.841 71.024 225.937 70.976C226.033 70.928 226.161 70.904 226.321 70.904C226.497 70.904 226.633 70.928 226.729 70.976C226.841 71.008 226.921 71.072 226.969 71.168C227.017 71.264 227.041 71.4 227.041 71.576V82.736C227.041 83.232 227.081 83.632 227.161 83.936C227.257 84.224 227.393 84.44 227.569 84.584C227.761 84.728 228.017 84.824 228.337 84.872C228.657 84.904 229.041 84.92 229.489 84.92C229.681 84.92 229.825 84.944 229.921 84.992C230.033 85.024 230.113 85.088 230.161 85.184C230.209 85.28 230.233 85.416 230.233 85.592C230.233 85.768 230.209 85.904 230.161 86C230.113 86.096 230.033 86.16 229.921 86.192C229.825 86.24 229.689 86.264 229.513 86.264ZM224.185 75.128L226.321 75.176L229.657 75.128C229.833 75.128 229.969 75.152 230.065 75.2C230.177 75.232 230.257 75.296 230.305 75.392C230.353 75.488 230.377 75.616 230.377 75.776C230.377 75.952 230.353 76.096 230.305 76.208C230.273 76.304 230.209 76.376 230.113 76.424C230.017 76.456 229.881 76.472 229.705 76.472L226.321 76.424L224.137 76.472C223.881 76.472 223.705 76.424 223.609 76.328C223.513 76.216 223.465 76.032 223.465 75.776C223.465 75.536 223.521 75.368 223.633 75.272C223.745 75.176 223.929 75.128 224.185 75.128ZM233.795 86.264C233.635 86.264 233.499 86.24 233.387 86.192C233.291 86.144 233.219 86.072 233.171 85.976C233.139 85.864 233.123 85.72 233.123 85.544V75.512C233.123 75.336 233.139 75.2 233.171 75.104C233.219 74.992 233.291 74.92 233.387 74.888C233.499 74.84 233.643 74.816 233.819 74.816C233.995 74.816 234.131 74.84 234.227 74.888C234.323 74.936 234.387 75.016 234.419 75.128C234.467 75.224 234.491 75.368 234.491 75.56V85.568C234.491 85.744 234.467 85.888 234.419 86C234.387 86.096 234.315 86.16 234.203 86.192C234.107 86.24 233.971 86.264 233.795 86.264ZM233.795 71.36C233.571 71.36 233.395 71.328 233.267 71.264C233.139 71.2 233.043 71.096 232.979 70.952C232.931 70.808 232.907 70.624 232.907 70.4C232.907 70.176 232.931 70 232.979 69.872C233.043 69.744 233.139 69.656 233.267 69.608C233.411 69.544 233.595 69.512 233.819 69.512C234.043 69.512 234.219 69.544 234.347 69.608C234.475 69.672 234.563 69.776 234.611 69.92C234.675 70.048 234.707 70.232 234.707 70.472C234.707 70.68 234.675 70.856 234.611 71C234.563 71.128 234.475 71.224 234.347 71.288C234.219 71.336 234.035 71.36 233.795 71.36ZM242.664 86.264C241.784 86.264 240.976 86.128 240.24 85.856C239.52 85.584 238.896 85.2 238.368 84.704C237.84 84.192 237.432 83.592 237.144 82.904C236.872 82.2 236.736 81.416 236.736 80.552C236.736 79.688 236.872 78.912 237.144 78.224C237.432 77.52 237.832 76.912 238.344 76.4C238.872 75.888 239.496 75.496 240.216 75.224C240.936 74.952 241.736 74.816 242.616 74.816C243.144 74.816 243.68 74.912 244.224 75.104C244.784 75.28 245.288 75.52 245.736 75.824C246.184 76.112 246.504 76.44 246.696 76.808C246.808 77.016 246.864 77.168 246.864 77.264C246.864 77.36 246.824 77.456 246.744 77.552C246.648 77.664 246.536 77.752 246.408 77.816C246.296 77.88 246.192 77.912 246.096 77.912C245.904 77.912 245.72 77.8 245.544 77.576C245.384 77.352 245.192 77.152 244.968 76.976C244.744 76.8 244.496 76.648 244.224 76.52C243.968 76.392 243.704 76.296 243.432 76.232C243.16 76.152 242.888 76.112 242.616 76.112C241.72 76.112 240.936 76.296 240.264 76.664C239.592 77.032 239.072 77.552 238.704 78.224C238.336 78.88 238.152 79.656 238.152 80.552C238.152 81.432 238.336 82.208 238.704 82.88C239.072 83.536 239.584 84.048 240.24 84.416C240.912 84.784 241.688 84.968 242.568 84.968C242.936 84.968 243.304 84.92 243.672 84.824C244.04 84.728 244.392 84.592 244.728 84.416C245.064 84.224 245.352 84.008 245.592 83.768C245.72 83.656 245.824 83.568 245.904 83.504C246 83.424 246.112 83.384 246.24 83.384C246.336 83.384 246.424 83.424 246.504 83.504C246.6 83.568 246.696 83.664 246.792 83.792C246.856 83.856 246.896 83.936 246.912 84.032C246.928 84.112 246.92 84.2 246.888 84.296C246.872 84.392 246.824 84.48 246.744 84.56C246.408 84.896 246 85.192 245.52 85.448C245.056 85.704 244.568 85.904 244.056 86.048C243.56 86.192 243.096 86.264 242.664 86.264ZM259.603 86.24C259.379 86.24 259.219 86.184 259.123 86.072C259.027 85.96 258.963 85.752 258.931 85.448V83.84C258.755 84.144 258.475 84.488 258.091 84.872C257.723 85.24 257.235 85.568 256.627 85.856C256.035 86.128 255.315 86.264 254.467 86.264C253.683 86.264 252.955 86.12 252.283 85.832C251.627 85.528 251.051 85.112 250.555 84.584C250.059 84.056 249.667 83.448 249.379 82.76C249.107 82.056 248.971 81.296 248.971 80.48C248.971 79.696 249.107 78.968 249.379 78.296C249.667 77.608 250.059 77.008 250.555 76.496C251.067 75.968 251.651 75.56 252.307 75.272C252.979 74.968 253.699 74.816 254.467 74.816C255.219 74.816 255.859 74.912 256.387 75.104C256.931 75.296 257.403 75.56 257.803 75.896C258.219 76.232 258.595 76.624 258.931 77.072V75.704C258.931 75.384 258.979 75.16 259.075 75.032C259.187 74.888 259.371 74.816 259.627 74.816C259.787 74.816 259.907 74.848 259.987 74.912C260.083 74.96 260.147 75.048 260.179 75.176C260.227 75.304 260.251 75.48 260.251 75.704V85.448C260.251 85.64 260.227 85.8 260.179 85.928C260.147 86.04 260.083 86.12 259.987 86.168C259.891 86.216 259.763 86.24 259.603 86.24ZM254.731 85.016C255.499 85.016 256.195 84.824 256.819 84.44C257.443 84.04 257.939 83.504 258.307 82.832C258.675 82.16 258.859 81.392 258.859 80.528C258.859 79.616 258.667 78.824 258.283 78.152C257.899 77.48 257.387 76.96 256.747 76.592C256.123 76.208 255.435 76.016 254.683 76.016C253.803 76.016 253.035 76.216 252.379 76.616C251.723 77.016 251.211 77.56 250.843 78.248C250.475 78.92 250.291 79.696 250.291 80.576C250.291 81.424 250.475 82.184 250.843 82.856C251.211 83.528 251.731 84.056 252.403 84.44C253.075 84.824 253.851 85.016 254.731 85.016Z" fill="#26A973"/>
<circle cx="56.1892" cy="48.8108" r="48.8108" fill="#2BFDBE" fill-opacity="0.2"/>
<circle cx="56.1892" cy="48.8108" r="48.8108" fill="#2BF0FD" fill-opacity="0.2"/>
<circle cx="56.1892" cy="56.1892" r="48.8108" fill="#2BFD7F" fill-opacity="0.2"/>
<circle cx="48.8108" cy="56.1892" r="48.8108" fill="#2BCBFD" fill-opacity="0.2"/>
<circle cx="48.8108" cy="48.8108" r="48.8108" fill="#2FFD2B" fill-opacity="0.2"/>
<path d="M40.665 77.4571C38.4855 77.4571 36.9357 77.1423 36.0155 76.5126C35.0953 75.8346 34.5383 74.987 34.3445 73.9699C34.1508 72.9044 34.054 71.8389 34.054 70.7734V33.2867C34.054 32.2212 34.1508 31.1799 34.3445 30.1628C34.5383 29.1457 35.0953 28.3224 36.0155 27.6927C36.9357 27.0147 38.5097 26.6757 40.7376 26.6757H55.34C57.1804 26.6757 59.1662 27.0631 61.2972 27.838C63.4282 28.5645 65.4382 29.7027 67.327 31.2525C69.2159 32.8024 70.7657 34.7397 71.9766 37.0644C73.1874 39.3892 73.7928 42.1498 73.7928 45.3464C73.7928 47.5743 73.4537 49.6569 72.7757 51.5941C72.1461 53.5314 71.1774 55.2992 69.8697 56.8975C68.6105 58.4473 67.0607 59.8277 65.2202 61.0385C63.4282 62.2009 61.3698 63.1211 59.0451 63.7991H47.3487V70.846C47.3487 71.9116 47.2518 72.9529 47.0581 73.9699C46.8643 74.987 46.3074 75.8346 45.3871 76.5126C44.4669 77.1423 42.8929 77.4571 40.665 77.4571ZM71.1048 75.7135C68.9253 77.3602 67.206 78.014 65.9467 77.675C64.6875 77.3844 63.3314 76.2705 61.8784 74.3332L48.511 56.171L63.622 54.2821L72.6304 66.4145C73.599 67.819 74.2044 69.0056 74.4466 69.9743C74.7372 70.9429 74.6161 71.8631 74.0834 72.7349C73.5506 73.6067 72.5577 74.5996 71.1048 75.7135ZM47.3487 50.5771H55.34C55.7759 50.5771 56.2844 50.5044 56.8656 50.3591C57.4953 50.1654 58.0764 49.8748 58.6092 49.4873C59.142 49.0514 59.5778 48.4945 59.9169 47.8164C60.3043 47.1384 60.4981 46.2908 60.4981 45.2737C60.4981 44.2566 60.2559 43.3606 59.7716 42.5857C59.2873 41.7624 58.6334 41.1327 57.8101 40.6968C57.0351 40.2125 56.1634 39.9704 55.1947 39.9704H47.3487V50.5771Z" fill="#10371F"/>
<path d="M33.4866 32.9189H34.9109C35.2093 32.9189 35.4512 33.1608 35.4512 33.4592C35.4512 33.7576 35.2093 33.9995 34.9109 33.9995H33.4866V32.9189Z" fill="#26A973"/>
<path d="M33.4866 32.9189H34.9109C35.2093 32.9189 35.4512 33.1608 35.4512 33.4592C35.4512 33.7576 35.2093 33.9995 34.9109 33.9995H33.4866V32.9189Z" fill="#26A973"/>
<path d="M33.4866 54.1372H34.9109C35.2093 54.1372 35.4512 54.3791 35.4512 54.6775C35.4512 54.9759 35.2093 55.2178 34.9109 55.2178H33.4866V54.1372Z" fill="#26A973"/>
<path d="M33.4866 38.2235H34.9109C35.2093 38.2235 35.4512 38.4654 35.4512 38.7638C35.4512 39.0622 35.2093 39.3041 34.9109 39.3041H33.4866V38.2235Z" fill="#26A973"/>
<path d="M33.4866 38.2235H34.9109C35.2093 38.2235 35.4512 38.4654 35.4512 38.7638C35.4512 39.0622 35.2093 39.3041 34.9109 39.3041H33.4866V38.2235Z" fill="#26A973"/>
<path d="M33.4866 43.5281H34.9109C35.2093 43.5281 35.4512 43.77 35.4512 44.0684C35.4512 44.3667 35.2093 44.6086 34.9109 44.6086H33.4866V43.5281Z" fill="#26A973"/>
<path d="M33.4866 59.4418H34.9109C35.2093 59.4418 35.4512 59.6837 35.4512 59.9821C35.4512 60.2804 35.2093 60.5223 34.9109 60.5223H33.4866V59.4418Z" fill="#26A973"/>
<path d="M33.4866 48.8326H34.9109C35.2093 48.8326 35.4512 49.0745 35.4512 49.3729C35.4512 49.6713 35.2093 49.9132 34.9109 49.9132H33.4866V48.8326Z" fill="#26A973"/>
<path d="M33.4866 43.5281H34.9109C35.2093 43.5281 35.4512 43.77 35.4512 44.0684C35.4512 44.3667 35.2093 44.6086 34.9109 44.6086H33.4866V43.5281Z" fill="#26A973"/>
<path d="M33.4866 35.5712H35.8933C36.1917 35.5712 36.4336 35.8131 36.4336 36.1115C36.4336 36.4099 36.1917 36.6518 35.8933 36.6518H33.4866V35.5712Z" fill="#26A973"/>
<path d="M33.4866 64.7464H34.9109C35.2093 64.7464 35.4512 64.9883 35.4512 65.2867C35.4512 65.5851 35.2093 65.827 34.9109 65.827H33.4866V64.7464Z" fill="#26A973"/>
<path d="M33.4866 40.8757H35.8933C36.1917 40.8757 36.4336 41.1176 36.4336 41.416C36.4336 41.7144 36.1917 41.9563 35.8933 41.9563H33.4866V40.8757Z" fill="#26A973"/>
<path d="M33.4866 48.8326H34.9109C35.2093 48.8326 35.4512 49.0745 35.4512 49.3729C35.4512 49.6713 35.2093 49.9132 34.9109 49.9132H33.4866V48.8326Z" fill="#26A973"/>
<path d="M33.4866 46.1804H35.8933C36.1917 46.1804 36.4336 46.4223 36.4336 46.7206C36.4336 47.019 36.1917 47.2609 35.8933 47.2609H33.4866V46.1804Z" fill="#26A973"/>
<path d="M33.4866 70.051H34.9109C35.2093 70.051 35.4512 70.2929 35.4512 70.5912C35.4512 70.8896 35.2093 71.1315 34.9109 71.1315H33.4866V70.051Z" fill="#26A973"/>
<path d="M33.4866 51.4849H35.8933C36.1917 51.4849 36.4336 51.7268 36.4336 52.0252C36.4336 52.3236 36.1917 52.5655 35.8933 52.5655H33.4866V51.4849Z" fill="#26A973"/>
<path d="M33.4866 35.5712H35.8933C36.1917 35.5712 36.4336 35.8131 36.4336 36.1115C36.4336 36.4099 36.1917 36.6518 35.8933 36.6518H33.4866V35.5712Z" fill="#26A973"/>
<path d="M33.4866 56.7895H35.8933C36.1917 56.7895 36.4336 57.0314 36.4336 57.3298C36.4336 57.6282 36.1917 57.8701 35.8933 57.8701H33.4866V56.7895Z" fill="#26A973"/>
<path d="M33.4866 40.8757H35.8933C36.1917 40.8757 36.4336 41.1176 36.4336 41.416C36.4336 41.7144 36.1917 41.9563 35.8933 41.9563H33.4866V40.8757Z" fill="#26A973"/>
<path d="M33.4866 62.0941H35.8933C36.1917 62.0941 36.4336 62.336 36.4336 62.6344C36.4336 62.9328 36.1917 63.1747 35.8933 63.1747H33.4866V62.0941Z" fill="#26A973"/>
<path d="M33.4866 46.1804H35.8933C36.1917 46.1804 36.4336 46.4223 36.4336 46.7206C36.4336 47.019 36.1917 47.2609 35.8933 47.2609H33.4866V46.1804Z" fill="#26A973"/>
<path d="M33.4866 67.3986H35.8933C36.1917 67.3986 36.4336 67.6405 36.4336 67.9389C36.4336 68.2373 36.1917 68.4792 35.8933 68.4792H33.4866V67.3986Z" fill="#26A973"/>
<path d="M33.4866 51.4849H35.8933C36.1917 51.4849 36.4336 51.7268 36.4336 52.0252C36.4336 52.3236 36.1917 52.5655 35.8933 52.5655H33.4866V51.4849Z" fill="#26A973"/>
</svg>
